<?xml version="1.0" encoding="UTF-8" standalone="no"?> <svg width="64" height="64" viewBox="0 0 64 64" fill="none" xmlns="http://www.w3.org/2000/svg">
<path d="M42.89 21.11C42.039 20.2618 40.8865 19.7855 39.685 19.7855C38.4835 19.7855 37.331 20.2618 36.48 21.11L32 25.59L27.52 21.11C26.67 20.26 25.5171 19.7825 24.315 19.7825C23.1129 19.7825 21.96 20.26 21.11 21.11C20.26 21.96 19.7825 23.1129 19.7825 24.315C19.7825 25.5171 20.26 26.67 21.11 27.52L25.59 32L21.11 36.48C20.26 37.33 19.7825 38.4829 19.7825 39.685C19.7825 40.8871 20.26 42.04 21.11 42.89C21.96 43.74 23.1129 44.2176 24.315 44.2176C25.5171 44.2176 26.67 43.74 27.52 42.89L32 38.41L36.48 42.89C36.9009 43.3109 37.4006 43.6448 37.9505 43.8726C38.5004 44.1003 39.0898 44.2176 39.685 44.2176C40.2802 44.2176 40.8696 44.1003 41.4196 43.8726C41.9695 43.6448 42.4691 43.3109 42.89 42.89C43.3109 42.4691 43.6448 41.9695 43.8726 41.4196C44.1003 40.8696 44.2176 40.2802 44.2176 39.685C44.2176 39.0898 44.1003 38.5004 43.8726 37.9505C43.6448 37.4006 43.3109 36.9009 42.89 36.48L38.41 32L42.89 27.52C43.7358 26.6678 44.2104 25.5157 44.2104 24.315C44.2104 23.1143 43.7358 21.9623 42.89 21.11Z" fill="#F0454E"/>
<path d="M32 3C26.2644 3 20.6575 4.70082 15.8885 7.88738C11.1195 11.0739 7.40245 15.6031 5.20751 20.9022C3.01257 26.2012 2.43827 32.0322 3.55724 37.6576C4.67621 43.2831 7.43819 48.4504 11.4939 52.5061C15.5496 56.5618 20.7169 59.3238 26.3424 60.4428C31.9678 61.5617 37.7988 60.9874 43.0978 58.7925C48.3969 56.5976 52.9261 52.8806 56.1126 48.1115C59.2992 43.3425 61 37.7357 61 32C61 24.3087 57.9447 16.9325 52.5061 11.4939C47.0676 6.05535 39.6913 3 32 3V3ZM32 52C28.0444 52 24.1776 50.827 20.8886 48.6294C17.5996 46.4318 15.0362 43.3082 13.5224 39.6537C12.0087 35.9991 11.6126 31.9778 12.3843 28.0982C13.156 24.2186 15.0608 20.6549 17.8579 17.8579C20.6549 15.0608 24.2186 13.156 28.0982 12.3843C31.9778 11.6126 35.9992 12.0087 39.6537 13.5224C43.3082 15.0362 46.4318 17.5996 48.6294 20.8886C50.827 24.1776 52 28.0444 52 32C52 37.3043 49.8929 42.3914 46.1421 46.1421C42.3914 49.8929 37.3043 52 32 52Z" fill="#F0454E"/>
</svg>
